<svg width="1120" height="1120" viewBox="0 0 1120 1120" fill="none" xmlns="http://www.w3.org/2000/svg">
<rect width="1120" height="1120" rx="173" fill="#5A5CD3"/>
<rect x="281" y="275" width="558" height="497" rx="208" fill="#D9D9D9"/>
<path d="M208 848L384 566L529 683.5L208 848Z" fill="#D9D9D9"/>
<circle cx="375" cy="518" r="30" fill="#D52828"/>
<path d="M566 518.5C566 541.42 547.42 560 524.5 560C501.58 560 483 541.42 483 518.5C483 495.58 501.58 477 524.5 477C547.42 477 566 495.58 566 518.5Z" fill="#C34A8C"/>
<path d="M763 518.5C763 551.361 736.361 578 703.5 578C670.639 578 644 551.361 644 518.5C644 485.639 670.639 459 703.5 459C736.361 459 763 485.639 763 518.5Z" fill="#28D54E"/>
</svg>
